<svg width="128" height="128" xmlns="http://www.w3.org/2000/svg">
 <!-- Created with Method Draw - http://github.com/duopixel/Method-Draw/ -->
 <g>
  <title>background</title>
  <rect fill="#fff" id="canvas_background" height="402" width="582" y="-1" x="-1"/>
 </g>
 <g>
  <title>Layer 1</title>
  <path id="svg_1" d="m126.18239,40.324984c-0.018413,-11.145987 -8.248867,-20.176861 -18.408047,-20.192005l0,-0.005048l-56.420964,0c-2.324597,-8.187858 -9.25696,-14.174787 -17.515034,-14.189931l-13.234092,0c-10.163783,0.010096 -18.398841,9.046018 -18.417253,20.192005l0,71.621041c0.018413,11.135891 8.253471,20.166765 18.417253,20.186957l87.174693,0c10.149973,-0.020192 18.389635,-9.051066 18.408047,-20.186957l0,-57.426062l-0.004603,0zm-105.578137,-24.29603l13.234092,0c4.814908,-0.020192 8.824263,4.210033 9.128071,9.47005l0.266983,4.729977l64.545546,0c5.031257,0.010096 9.192516,4.573489 9.201722,10.096002l0,2.498761c-2.720469,-1.74156 -5.83681,-2.811737 -9.206325,-2.816785l-87.174693,0c-3.369515,0.005048 -6.490459,1.080272 -9.206325,2.821833l0,-16.703836c0.013809,-5.522513 4.175068,-10.085906 9.210928,-10.096002zm87.17009,91.813046l-87.17009,0c-5.031257,-0.010096 -9.192516,-4.583585 -9.210928,-10.096002l0,-37.547033l0.004603,0c0.009206,-5.527561 4.170465,-10.090954 9.206325,-10.10105l87.174693,0c5.031257,0.010096 9.164897,4.548249 9.206325,10.05057l0,37.592465c-0.018413,5.527561 -4.179672,10.090954 -9.210928,10.10105z" stroke-width="5" stroke="#007fff" fill="#007fff"/>
  <rect id="svg_3" height="56" width="109" y="50.4375" x="8.5" stroke-width="5" stroke="#007fff" fill="#007fff"/>
  <rect id="svg_4" height="13" width="108" y="30.4375" x="11.5" stroke-width="5" stroke="#007fff" fill="#007fff"/>
  <rect id="svg_6" height="15" width="26" y="15.4375" x="15.5" stroke-width="5" stroke="#007fff" fill="#007fff"/>
 </g>
</svg>