<svg width="128" height="128" xmlns="http://www.w3.org/2000/svg">
 <!-- Created with Method Draw - http://github.com/duopixel/Method-Draw/ -->
 <g>
  <title>background</title>
  <rect fill="#fff" id="canvas_background" height="402" width="582" y="-1" x="-1"/>
 </g>
 <g>
  <title>Layer 1</title>
  <ellipse ry="59.5" rx="62.5" id="svg_1" cy="64.9375" cx="64" stroke-opacity="null" stroke-width="5" stroke="#007fff" fill="none"/>
  <ellipse ry="32.5" rx="32" id="svg_3" cy="65.9375" cx="62.5" stroke-opacity="null" stroke-width="5" stroke="#007fff" fill="#007fff"/>
  <path id="svg_5" d="m127.225803,86.546643c-0.010543,-5.971065 -4.723143,-10.809034 -10.540093,-10.817147l0,-0.002704l-32.305558,0c-1.33102,-4.386353 -5.300357,-7.593637 -10.028771,-7.60175l-7.577587,0c-5.819586,0.005409 -10.534822,4.846082 -10.545365,10.817147l0,38.368419c0.010543,5.965656 4.725778,10.803625 10.545365,10.814442l49.914551,0c5.811679,-0.010817 10.529551,-4.848786 10.540093,-10.814442l0,-30.763965l-0.002636,0zm-60.452009,-13.015732l7.577587,0c2.756924,-0.010817 5.052603,2.255375 5.226558,5.073242l0.15287,2.533917l36.957537,0c2.880801,0.005409 5.263458,2.450084 5.268729,5.408573l0,1.338622c-1.557688,-0.932979 -3.342045,-1.506288 -5.271365,-1.508992l-49.914551,0c-1.929319,0.002704 -3.716312,0.578717 -5.271365,1.511696l0,-8.948484c0.007907,-2.95849 2.390564,-5.403165 5.274,-5.408573zm49.911915,49.185565l-49.911915,0c-2.880801,-0.005409 -5.263458,-2.455492 -5.274,-5.408573l0,-20.114484l0.002636,0c0.005271,-2.961194 2.387928,-5.405869 5.271365,-5.411278l49.914551,0c2.880801,0.005409 5.247643,2.436562 5.271365,5.384235l0,20.138823c-0.010543,2.961194 -2.3932,5.405869 -5.274,5.411278z" stroke-width="5" stroke="#003f7f" fill="#003f7f"/>
  <rect id="svg_6" height="28" width="58" y="91.4375" x="61.5" stroke-width="5" stroke="#003f7f" fill="#003f7f"/>
  <rect id="svg_8" height="10" width="58" y="80.4375" x="64.5" stroke-width="5" stroke="#003f7f" fill="#003f7f"/>
  <rect id="svg_10" height="8" width="9" y="74.4375" x="67.5" stroke-width="5" stroke="#003f7f" fill="#003f7f"/>
 </g>
</svg>